%
M48
M72
T01C0.01600
T02C0.02362
T03C0.02400
T04C0.03150
T05C0.04000
T06C0.04724
T07C0.05100
T08C0.05118
T09C0.07100
T10C0.11800
T11C0.12598
%
T01
X143500Y169000
X161500Y176500
X195000Y166500
X195000Y162500
X195000Y158500
X236000Y156000
X267500Y170000
X264000Y242000
X273000Y249500
X178500Y257500
X169000Y272500
X294000Y85000
X309500Y74500
X260000Y56000
T02
X316500Y54500
T03
X148000Y119000
T04
X91040Y64460
X104960Y50540
T05
X285500Y161500
X295500Y161500
X310500Y161500
X310500Y151500
X320500Y151500
X320500Y161500
X330500Y161500
X330500Y151500
X340500Y151500
X340500Y161500
X350500Y161500
X350500Y151500
X360500Y151500
X360500Y161500
X370500Y161500
X370500Y151500
X370500Y141500
X370500Y131500
X360500Y131500
X360500Y141500
X350500Y141500
X350500Y131500
X340500Y131500
X340500Y141500
X330500Y141500
X330500Y131500
X320500Y131500
X320500Y141500
X310500Y141500
X310500Y131500
X380500Y131500
X380500Y141500
X380500Y151500
X380500Y161500
X259500Y284000
X259500Y294000
X259500Y309000
X259500Y319000
X259500Y329000
X269500Y329000
X269500Y319000
X269500Y309000
X279500Y309000
X279500Y319000
X279500Y329000
X289500Y329000
X289500Y319000
X289500Y309000
X289500Y339000
X289500Y349000
X279500Y349000
X279500Y339000
X269500Y339000
X269500Y349000
X259500Y349000
X259500Y339000
X259500Y359000
X259500Y369000
X259500Y379000
X269500Y379000
X269500Y369000
X269500Y359000
X279500Y359000
X279500Y369000
X279500Y379000
X289500Y379000
X289500Y369000
X289500Y359000
X132500Y263500
X122500Y263500
X107000Y263500
X107000Y273500
X97000Y273500
X97000Y263500
X87000Y263500
X87000Y273500
X77000Y273500
X77000Y263500
X67000Y263500
X67000Y273500
X67000Y283500
X67000Y293500
X77000Y293500
X77000Y283500
X87000Y283500
X87000Y293500
X97000Y293500
X97000Y283500
X107000Y283500
X107000Y293500
X57000Y293500
X57000Y283500
X47000Y283500
X47000Y293500
X37000Y293500
X37000Y283500
X37000Y273500
X37000Y263500
X47000Y263500
X47000Y273500
X57000Y273500
X57000Y263500
T06
X95216Y74203
X114703Y54716
T07
X185500Y71000
X232500Y71000
X232500Y119000
X185500Y119000
X118000Y185000
X118000Y232000
X70000Y232000
X70000Y185000
X186000Y298500
X233000Y298500
X233000Y346500
X186000Y346500
X298000Y232500
X298000Y185500
X346000Y185500
X346000Y232500
T08
X386000Y229185
X386000Y209500
X386000Y189815
X228185Y31000
X208500Y31000
X188815Y31000
X30500Y189315
X30500Y209000
X30500Y228685
X189315Y386500
X209000Y386500
X228685Y386500
T09
X209500Y290500
X290000Y209000
X209000Y127000
X126000Y208500
T10
X161809Y55626
X147100Y39315
T11
X147000Y68137
X154000Y101000
X70500Y94000
X70500Y324500
X93000Y347000
X322500Y346500
X346000Y324500
X301500Y101000
X346000Y94500
M30
